<?xml version="1.0" encoding="UTF-8"?>
<svg viewBox="0 0 106 73" version="1.1" xmlns="http://www.w3.org/2000/svg" xmlns:xlink="http://www.w3.org/1999/xlink">
    <g stroke="none" stroke-width="1" fill="none" fill-rule="evenodd">
            <path d="M38.9562,5.58998844 C46.6916,-1.85507156 58.9254,-1.86447156 66.6723,5.56868844 L70.0003,8.76198844 C70.0003,8.76198844 70.1453,8.88588844 70.3961,9.11418844 C68.634,10.6365884 67.0299,12.3993884 65.6333,14.3939884 L52.7877,32.7393884 L40.0123,14.4941884 C38.6075,12.4878884 36.9927,10.7160884 35.2184,9.18748844 L38.9562,5.58998844 Z" id="Path" fill="#AEF8EA"></path>
            <path d="M0,7.43888844 C12.9973,-1.66192156 30.9115,1.49678844 40.0123,14.4941884 L64.5273,49.5052884 C69.0778,56.0038884 67.4984,64.9609884 60.9997,69.5113884 C54.5011,74.0618884 45.544,72.4824884 40.9936,65.9837884 L0,7.43888844 Z" id="Path" fill="#272727" fill-rule="nonzero"></path>
            <path d="M65.6333,14.3939884 C74.7341,1.39658844 92.6483,-1.76212156 105.646,7.33868844 L64.5573,66.0188884 C60.0069,72.5175884 51.0498,74.0969884 44.5511,69.5464884 C38.0525,64.9960884 36.4731,56.0390884 41.0235,49.5403884 L65.6333,14.3939884 Z" id="Path" fill-opacity="0.7" fill="#71D5C3" fill-rule="nonzero"></path>
    </g>
</svg>