<?xml version="1.0" encoding="UTF-8"?>
<svg viewBox="0 0 32 46" version="1.1" xmlns="http://www.w3.org/2000/svg" xmlns:xlink="http://www.w3.org/1999/xlink">
  <g stroke="none" stroke-width="1" fill="none" fill-rule="evenodd">
    <path d="M29.3350126,18.6725441 L28,18.6725441 L28,12.0025189 C28,5.37371075 22.6262893,0 15.9974811,0 C9.36867296,0 3.99496222,5.37371075 3.99496222,12.0025189 L3.99496222,18.6725441 L2.66498741,18.6725441 C1.1931555,18.6725441 3.55271368e-15,19.8656996 3.55271368e-15,21.3375315 L3.55271368e-15,42.6775819 C3.55271368e-15,44.1494138 1.1931555,45.3425693 2.66498741,45.3425693 L29.3350126,45.3425693 C30.8068445,45.3425693 32,44.1494138 32,42.6775819 L32,21.3375315 C32,19.8656996 30.8068445,18.6725441 29.3350126,18.6725441 Z M22.6649874,18.6725441 L9.32997481,18.6725441 L9.32997481,12.0025189 C9.26328975,9.57674953 10.5193229,7.30615493 12.6096908,6.07361048 C14.7000588,4.84106603 17.2949035,4.84106603 19.3852714,6.07361048 C21.4756393,7.30615493 22.7316725,9.57674953 22.6649874,12.0025189 L22.6649874,18.6725441 Z" fill="#000000" fill-rule="nonzero"></path>
  </g>
</svg>
