<svg viewBox="0 0 90 85" fill="none" xmlns="http://www.w3.org/2000/svg">
<path d="M89.7365 38.4579C88.2446 26.9904 82.4902 16.0993 73.2982 8.96946C59.6305 -1.63183 40.1155 -2.95784 25.2233 5.6436C23.8973 6.41022 22.4426 8.04708 23.4212 9.22613C24.223 10.1925 25.7658 9.65278 26.8954 9.10288C38.6832 3.36338 53.7995 5.31854 63.7385 13.8685C70.0665 19.3114 74.1346 27.1875 75.0753 35.468C76.0843 44.3498 72.109 49.5069 69.5748 56.7058C69.2471 57.637 68.943 58.6027 68.6775 59.6145C67.6224 63.6345 69.6189 67.8489 73.3592 69.6347C89.0553 77.1255 90.837 46.9178 89.7365 38.4579ZM64.7767 78.8612C49.8845 87.4627 30.3695 86.1367 16.7018 75.5354C7.50978 68.4055 1.75539 57.5144 0.26346 46.0469C-0.837032 37.587 0.944751 7.37934 16.6408 14.8701C20.3811 16.656 22.3776 20.8704 21.3225 24.8897C21.057 25.9021 20.7529 26.8679 20.4252 27.7991C17.891 34.9973 13.9157 40.155 14.9247 49.0369C15.8654 57.3173 19.9335 65.1934 26.2615 70.6363C36.2005 79.1856 51.3175 81.1414 63.1046 75.402C64.2342 74.852 65.777 74.3123 66.5788 75.2787C67.5574 76.4571 66.1034 78.0946 64.7767 78.8612Z" fill="black"/>
</svg>
